<svg width="32" height="38" viewBox="0 0 32 38" fill="none" xmlns="http://www.w3.org/2000/svg">
<path d="M15.6032 19.0016L0 9.74035L15.6027 0.5L31.2297 9.75078L15.6032 19.0016Z" fill="#00CBC0"/>
<path d="M12.4959 8.90312C12.3254 8.61659 12.0484 8.36135 11.692 8.15029C10.7712 7.60505 9.17881 7.66118 8.19304 8.28585C7.26774 8.87234 7.21224 9.74928 8.08451 10.2657L6.86284 10.9888C5.36261 10.1009 5.49546 8.57687 7.15921 7.59215C8.13507 7.01463 9.42412 6.74895 10.626 6.80704L10.6275 6.80804C10.6275 6.80804 10.6275 6.80804 10.6275 6.80754C10.6275 6.80754 10.6285 6.80754 10.6289 6.80754L10.6275 6.80654C10.5293 6.09496 10.9783 5.3322 11.9537 4.75468C13.6175 3.76999 16.1912 3.69152 17.6914 4.57941L16.4697 5.30242C15.5979 4.78646 14.1166 4.81874 13.1253 5.36698C12.0697 5.95047 11.975 6.89295 12.8964 7.43821C13.2527 7.64924 13.6839 7.81361 14.1681 7.91442C15.6396 8.22082 17.4317 7.98592 18.7153 7.23509C20.4549 6.21712 20.5808 4.61615 19.0211 3.69299L15.6019 1.66895L11.181 4.28591L9.35424 5.36748L8.77488 5.7106H8.77391L8.19454 6.05425L6.36773 7.13578L1.9469 9.75275L5.36608 11.7768C6.92578 12.7 9.6303 12.6255 11.3496 11.5961C12.6183 10.8363 13.0148 9.7756 12.4974 8.90412L12.4959 8.90312Z" fill="black"/>
<path d="M18.7095 10.5968C18.88 10.8833 19.1571 11.1386 19.5134 11.3496C20.4342 11.8948 22.0266 11.8387 23.0124 11.214C23.9377 10.6276 23.9932 9.75063 23.1209 9.23417L24.3426 8.51116C25.8428 9.39904 25.71 10.923 24.0462 11.9078C23.0704 12.4853 21.7813 12.7509 20.5795 12.6928L20.578 12.6918C20.578 12.6918 20.578 12.6918 20.578 12.6923C20.578 12.6923 20.577 12.6923 20.5765 12.6923L20.578 12.6933C20.6761 13.405 20.2271 14.1677 19.2517 14.7452C17.5879 15.7299 15.0143 15.8084 13.5141 14.9205L14.7357 14.1975C15.6075 14.7134 17.0889 14.6811 18.0801 14.1329C19.1357 13.5494 19.2304 12.6069 18.3091 12.0617C17.9527 11.8506 17.5215 11.6863 17.0373 11.5855C15.5659 11.2791 13.7738 11.514 12.4901 12.2648C10.7506 13.2828 10.6247 14.8838 12.1844 15.8069L15.6036 17.8309L20.0244 15.214L21.8512 14.1324L22.4306 13.7893H22.4315L23.0109 13.4457L24.8377 12.3641L29.2585 9.74713L25.8393 7.72308C24.2797 6.79995 21.5751 6.87442 19.8559 7.90383C18.5871 8.66359 18.1906 9.72429 18.708 10.5958L18.7095 10.5968Z" fill="black"/>
<path d="M15.6039 10.8432L13.7557 9.74925L15.6039 8.65527L17.452 9.74925L15.6039 10.8432Z" fill="black"/>
<path d="M15.6275 37.4999L0 28.2491V9.74756L15.6275 18.9988V37.4999Z" fill="#016062"/>
<path d="M5.55336 23.2714C5.22625 22.892 4.8719 22.5916 4.51556 22.38C3.5947 21.8348 2.84584 22.3899 2.88054 23.619C2.91325 24.7725 3.62644 26.1044 4.49821 26.6208V28.0673C2.998 27.1795 1.77732 24.8545 1.77732 22.8851C1.77732 21.73 2.19759 20.9499 2.84733 20.6812L2.84882 20.6822C2.84882 20.6822 2.84882 20.6817 2.84832 20.6812C2.84832 20.6812 2.84832 20.6812 2.84882 20.6812L2.84733 20.6802C2.19709 19.6424 1.77732 18.3647 1.77732 17.2096C1.77732 15.2402 2.998 14.3603 4.49821 15.2486V16.6952C3.62644 16.1792 2.91325 16.6664 2.88054 17.7817C2.84584 18.9695 3.5942 20.4111 4.51556 20.9563C4.8719 21.1674 5.22625 21.2861 5.55336 21.294C6.54804 21.3178 7.24537 20.4354 7.25278 18.9288C7.26269 16.8873 5.97364 14.4487 4.41394 13.525L0.994751 11.501V16.7349V18.8975V19.5833V19.5848V20.2706V22.4332V27.6671L4.41394 29.6911C5.97364 30.6143 7.26319 29.7026 7.25278 27.6487C7.24537 26.1337 6.54753 24.4249 5.55336 23.2714Z" fill="black"/>
<path d="M10.0822 23.9753C10.4093 24.3547 10.7636 24.6552 11.12 24.8667C12.0408 25.4119 12.7897 24.8567 12.755 23.6277C12.7223 22.4742 12.0091 21.1423 11.1373 20.6259V19.1794C12.6375 20.0672 13.8582 22.3922 13.8582 24.3617C13.8582 25.5167 13.4379 26.2968 12.7882 26.5655L12.7867 26.5645C12.7867 26.5645 12.7867 26.565 12.7872 26.5655C12.7872 26.5655 12.7872 26.5655 12.7867 26.5655L12.7882 26.5665C13.4384 27.6043 13.8582 28.882 13.8582 30.0371C13.8582 32.0065 12.6375 32.8865 11.1373 31.998V30.5515C12.0091 31.0675 12.7223 30.5803 12.755 29.465C12.7897 28.2772 12.0413 26.8356 11.12 26.2904C10.7636 26.0793 10.4093 25.9607 10.0822 25.9527C9.0875 25.9289 8.39016 26.8113 8.38275 28.3179C8.37284 30.3593 9.6619 32.798 11.2216 33.7218L14.6408 35.7458V30.5118V28.3492V27.6634V27.6619V26.9762V24.8136V19.5796L11.2216 17.5555C9.6619 16.6324 8.37234 17.5441 8.38275 19.598C8.39016 21.113 9.088 22.8218 10.0822 23.9753Z" fill="black"/>
<path d="M8.74299 25.2619L6.8949 24.1679V21.9795L8.74299 23.074V25.2619Z" fill="black"/>
<path d="M31.2446 28.2491L15.6176 37.4999V18.9988L31.2446 9.74756V28.2491Z" fill="#00BFC7"/>
<path d="M21.1709 25.9546C20.8438 25.9626 20.4895 26.0813 20.1331 26.2923C19.2123 26.8376 18.4634 28.2792 18.4981 29.467C18.5308 30.5818 19.244 31.0694 20.1158 30.5535V32.0001C18.6156 32.8879 17.3949 32.0085 17.3949 30.039C17.3949 28.884 17.8152 27.6063 18.4649 26.5684L18.4664 26.5674C18.4664 26.5674 18.4664 26.5674 18.4659 26.5674C18.4659 26.5674 18.4659 26.5669 18.4664 26.5664L18.4649 26.5674C17.8147 26.2988 17.3949 25.5187 17.3949 24.3636C17.3949 22.3942 18.6156 20.0692 20.1158 19.1813V20.6278C19.244 21.1438 18.5308 22.4756 18.4981 23.6297C18.4634 24.8587 19.2118 25.4139 20.1331 24.8686C20.4895 24.6576 20.8438 24.3571 21.1709 23.9773C22.1656 22.8237 22.8629 21.115 22.8703 19.5999C22.8803 17.5461 21.5912 16.6344 20.0315 17.5575L16.6123 19.5815V24.8155V26.9781V27.6639V27.6654V28.3511V30.5138V35.7478L20.0315 33.7238C21.5912 32.8004 22.8808 30.3618 22.8703 28.3199C22.8629 26.8132 22.1651 25.9308 21.1709 25.9546Z" fill="black"/>
<g style="mix-blend-mode:screen" opacity="0.81">
<path d="M21.1625 25.9556C20.8354 25.9636 20.481 26.0822 20.1247 26.2933C19.2038 26.8385 18.455 28.2801 18.4897 29.4679C18.5224 30.5828 19.2356 31.0704 20.1074 30.5545V32.001C18.6072 32.8888 17.3865 32.0095 17.3865 30.04C17.3865 28.885 17.8067 27.6072 18.4565 26.5694L18.458 26.5684C18.458 26.5684 18.458 26.5684 18.4575 26.5684C18.4575 26.5684 18.4575 26.5679 18.458 26.5674L18.4565 26.5684C17.8062 26.2998 17.3865 25.5196 17.3865 24.3646C17.3865 22.3951 18.6072 20.0702 20.1074 19.1823V20.6288C19.2356 21.1448 18.5224 22.4766 18.4897 23.6306C18.455 24.8597 19.2033 25.4149 20.1247 24.8696C20.481 24.6586 20.8354 24.3581 21.1625 23.9783C22.1572 22.8247 22.8545 21.116 22.8619 19.6009C22.8718 17.547 21.5828 16.6353 20.0231 17.5585L16.6039 19.5825V24.8165V26.9791V27.6649V27.6663V28.3521V30.5147V35.7488L20.0231 33.7248C21.5828 32.8013 22.8723 30.3628 22.8619 28.3208C22.8545 26.8142 22.1567 25.9318 21.1625 25.9556Z" fill="black"/>
</g>
<path d="M25.6997 21.292C26.0268 21.2841 26.3812 21.1654 26.7375 20.9544C27.6584 20.4091 28.4073 18.9676 28.3725 17.7798C28.3398 16.6649 27.6267 16.1773 26.7549 16.6932V15.2467C28.2551 14.3588 29.4758 15.2382 29.4758 17.2077C29.4758 18.3627 29.0555 19.6404 28.4057 20.6783L28.4042 20.6793C28.4042 20.6793 28.4042 20.6793 28.4047 20.6793C28.4047 20.6793 28.4047 20.6798 28.4042 20.6803L28.4057 20.6793C29.056 20.9479 29.4758 21.7281 29.4758 22.8831C29.4758 24.8525 28.2551 27.1775 26.7549 28.0654V26.6189C27.6267 26.1029 28.3398 24.7711 28.3725 23.6171C28.4073 22.388 27.6589 21.8328 26.7375 22.3781C26.3812 22.5891 26.0268 22.8895 25.6997 23.2694C24.7051 24.423 24.0077 26.1317 24.0003 27.6468C23.9904 29.7006 25.2794 30.6124 26.8391 29.6892L30.2583 27.6651V22.4312V20.2686V19.5828V19.5813V18.8956V16.733V11.499L26.8391 13.5231C25.2794 14.4462 23.9899 16.8849 24.0003 18.9269C24.0077 20.4335 24.7056 21.3159 25.6997 21.292Z" fill="black"/>
<path d="M24.361 24.1679L22.5125 25.2619V23.074L24.361 21.9795V24.1679Z" fill="black"/>
<path style="mix-blend-mode:hard-light" d="M15.6047 19.0016L0.0510254 9.74035L15.6042 0.5L31.2312 9.75078L15.6047 19.0016Z" fill="url(#paint0_linear_2349_12145)"/>
<path style="mix-blend-mode:hard-light" d="M15.6275 37.4999L0 28.2491V9.74756L15.6275 18.9988V37.4999Z" fill="url(#paint1_linear_2349_12145)"/>
<path style="mix-blend-mode:hard-light" d="M31.2446 28.2491L15.6176 37.4999V18.9988L31.2446 9.74756V28.2491Z" fill="url(#paint2_linear_2349_12145)"/>
<g opacity="0.5">
<g opacity="0.5">
<path d="M12.5036 8.9036C12.3331 8.61708 12.0561 8.36184 11.6997 8.15078C10.7789 7.60554 9.1865 7.66167 8.20073 8.28634C7.27543 8.87282 7.21993 9.74977 8.0922 10.2662L6.87053 10.9892C5.3703 10.1014 5.50315 8.57736 7.1669 7.59264C8.14276 7.01512 9.43182 6.74944 10.6337 6.80753L10.6352 6.80853C10.6352 6.80853 10.6352 6.80853 10.6352 6.80803C10.6352 6.80803 10.6362 6.80803 10.6366 6.80803L10.6352 6.80703C10.537 6.09545 10.986 5.33269 11.9614 4.75517C13.6252 3.77048 16.1988 3.69201 17.6991 4.57989L16.4774 5.30291C15.6056 4.78695 14.1243 4.81923 13.133 5.36747C12.0774 5.95096 11.9827 6.89343 12.904 7.4387C13.2604 7.64973 13.6916 7.8141 14.1758 7.91491C15.6472 8.22131 17.4394 7.98641 18.723 7.23558C20.4626 6.21761 20.5885 4.61664 19.0288 3.69348L15.6096 1.66943L11.1887 4.2864L9.36193 5.36797L8.78257 5.71109H8.7816L8.20223 6.05473L6.37543 7.13627L1.95459 9.75324L5.37377 11.7773C6.93347 12.7005 9.63799 12.626 11.3573 11.5965C12.626 10.8368 13.0225 9.77608 12.5051 8.90461L12.5036 8.9036Z" fill="black"/>
<path d="M18.7086 10.5973C18.8791 10.8838 19.1562 11.1391 19.5125 11.3501C20.4334 11.8953 22.0258 11.8392 23.0115 11.2145C23.9368 10.6281 23.9923 9.75112 23.1201 9.23466L24.3417 8.51165C25.8419 9.39953 25.7091 10.9235 24.0454 11.9083C23.0695 12.4858 21.7805 12.7514 20.5786 12.6933L20.5771 12.6923C20.5771 12.6923 20.5771 12.6923 20.5771 12.6928C20.5771 12.6928 20.5761 12.6928 20.5756 12.6928L20.5771 12.6938C20.6752 13.4054 20.2262 14.1682 19.2509 14.7457C17.5871 15.7304 15.0134 15.8089 13.5132 14.921L14.7349 14.198C15.6066 14.7139 17.088 14.6816 18.0793 14.1334C19.1349 13.5499 19.2295 12.6074 18.3082 12.0622C17.9519 11.8511 17.5207 11.6868 17.0365 11.5859C15.565 11.2796 13.7729 11.5145 12.4893 12.2653C10.7497 13.2833 10.6238 14.8842 12.1835 15.8074L15.6027 17.8314L20.0235 15.2145L21.8503 14.1329L22.4297 13.7898H22.4307L23.01 13.4462L24.8368 12.3646L29.2577 9.74762L25.8385 7.72357C24.2788 6.80044 21.5743 6.8749 19.855 7.90432C18.5862 8.66408 18.1898 9.72477 18.7072 10.5963L18.7086 10.5973Z" fill="black"/>
<path d="M15.6116 10.8437L13.7634 9.74974L15.6116 8.65576L17.4597 9.74974L15.6116 10.8437Z" fill="black"/>
</g>
</g>
<g style="mix-blend-mode:color-burn" opacity="0.5">
<g opacity="0.5">
<path d="M5.54225 23.2704C5.21514 22.891 4.8608 22.5906 4.50445 22.3791C3.58359 21.8338 2.83474 22.389 2.86943 23.618C2.90214 24.7716 3.61533 26.1034 4.4871 26.6198V28.0664C2.98689 27.1785 1.76621 24.8535 1.76621 22.8841C1.76621 21.729 2.18648 20.9489 2.83622 20.6803L2.83771 20.6813C2.83771 20.6813 2.83771 20.6808 2.83721 20.6803C2.83721 20.6803 2.83721 20.6803 2.83771 20.6803L2.83622 20.6793C2.18598 19.6414 1.76621 18.3637 1.76621 17.2086C1.76621 15.2392 2.98689 14.3593 4.4871 15.2477V16.6942C3.61533 16.1783 2.90214 16.6654 2.86943 17.7807C2.83474 18.9685 3.58309 20.4101 4.50445 20.9553C4.8608 21.1664 5.21514 21.2851 5.54225 21.293C6.53693 21.3169 7.23426 20.4344 7.24167 18.9278C7.25158 16.8864 5.96253 14.4477 4.40284 13.524L0.983643 11.5V16.7339V18.8965V19.5823V19.5838V20.2696V22.4322V27.6661L4.40284 29.6902C5.96253 30.6133 7.25208 29.7016 7.24167 27.6477C7.23426 26.1327 6.53643 24.4239 5.54225 23.2704Z" fill="black"/>
<path d="M10.0711 23.9739C10.3982 24.3533 10.7525 24.6537 11.1089 24.8652C12.0297 25.4104 12.7786 24.8553 12.7439 23.6262C12.7112 22.4727 11.998 21.1409 11.1262 20.6244V19.1779C12.6264 20.0658 13.8471 22.3908 13.8471 24.3602C13.8471 25.5152 13.4268 26.2954 12.7771 26.564L12.7756 26.563C12.7756 26.563 12.7756 26.5635 12.7761 26.564C12.7761 26.564 12.7761 26.564 12.7756 26.564L12.7771 26.565C13.4273 27.6029 13.8471 28.8806 13.8471 30.0356C13.8471 32.005 12.6264 32.885 11.1262 31.9966V30.55C11.998 31.066 12.7112 30.5789 12.7439 29.4635C12.7786 28.2757 12.0302 26.8342 11.1089 26.2889C10.7525 26.0779 10.3982 25.9592 10.0711 25.9513C9.07639 25.9274 8.37905 26.8098 8.37164 28.3164C8.36173 30.3579 9.65079 32.7966 11.2105 33.7203L14.6297 35.7443V30.5103V28.3477V27.662V27.6605V26.9747V24.8121V19.5781L11.2105 17.5541C9.65079 16.6309 8.36123 17.5427 8.37164 19.5965C8.37905 21.1116 9.07689 22.8203 10.0711 23.9739Z" fill="black"/>
<path d="M8.73189 25.2609L6.88379 24.167V21.9785L8.73189 23.073V25.2609Z" fill="black"/>
</g>
</g>
<g style="mix-blend-mode:color-burn" opacity="0.5">
<g opacity="0.5">
<path d="M21.1516 25.9527C20.8245 25.9607 20.4702 26.0793 20.1138 26.2904C19.193 26.8356 18.4441 28.2772 18.4788 29.465C18.5115 30.5798 19.2247 31.0675 20.0965 30.5515V31.9981C18.5963 32.8859 17.3756 32.0065 17.3756 30.0371C17.3756 28.882 17.7959 27.6043 18.4456 26.5665L18.4471 26.5655C18.4471 26.5655 18.4471 26.5655 18.4466 26.5655C18.4466 26.5655 18.4466 26.565 18.4471 26.5645L18.4456 26.5655C17.7954 26.2968 17.3756 25.5167 17.3756 24.3617C17.3756 22.3922 18.5963 20.0672 20.0965 19.1793V20.6259C19.2247 21.1418 18.5115 22.4737 18.4788 23.6277C18.4441 24.8567 19.1925 25.4119 20.1138 24.8667C20.4702 24.6556 20.8245 24.3552 21.1516 23.9753C22.1463 22.8218 22.8437 21.113 22.8511 19.598C22.861 17.5441 21.5719 16.6324 20.0122 17.5555L16.593 19.5796V24.8135V26.9761V27.6619V27.6634V28.3492V30.5118V35.7458L20.0122 33.7218C21.5719 32.7984 22.8615 30.3598 22.8511 28.3179C22.8437 26.8113 22.1458 25.9289 21.1516 25.9527Z" fill="black"/>
<g style="mix-blend-mode:screen" opacity="0.81">
<path d="M21.1504 25.9507C20.8233 25.9587 20.469 26.0774 20.1126 26.2884C19.1918 26.8337 18.4429 28.2752 18.4776 29.4631C18.5103 30.5779 19.2235 31.0655 20.0953 30.5496V31.9962C18.5951 32.8839 17.3744 32.0046 17.3744 30.0351C17.3744 28.8801 17.7946 27.6024 18.4444 26.5645L18.4459 26.5635C18.4459 26.5635 18.4459 26.5635 18.4454 26.5635C18.4454 26.5635 18.4454 26.563 18.4459 26.5625L18.4444 26.5635C17.7941 26.2949 17.3744 25.5147 17.3744 24.3597C17.3744 22.3903 18.5951 20.0653 20.0953 19.1774V20.6239C19.2235 21.1399 18.5103 22.4717 18.4776 23.6258C18.4429 24.8548 19.1913 25.41 20.1126 24.8647C20.469 24.6537 20.8233 24.3532 21.1504 23.9734C22.1451 22.8198 22.8424 21.1111 22.8498 19.596C22.8598 17.5422 21.5707 16.6305 20.011 17.5536L16.5918 19.5776V24.8116V26.9742V27.66V27.6614V28.3472V30.5098V35.7439L20.011 33.7199C21.5707 32.7965 22.8603 30.3579 22.8498 28.316C22.8424 26.8093 22.1446 25.9269 21.1504 25.9507Z" fill="black"/>
</g>
<path d="M25.6889 21.2901C26.016 21.2822 26.3703 21.1635 26.7267 20.9524C27.6475 20.4072 28.3964 18.9656 28.3617 17.7778C28.329 16.663 27.6158 16.1753 26.744 16.6913V15.2447C28.2442 14.3569 29.4649 15.2363 29.4649 17.2058C29.4649 18.3608 29.0446 19.6385 28.3949 20.6763L28.3934 20.6773C28.3934 20.6773 28.3934 20.6773 28.3939 20.6773C28.3939 20.6773 28.3939 20.6778 28.3934 20.6783L28.3949 20.6773C29.0451 20.946 29.4649 21.7261 29.4649 22.8811C29.4649 24.8506 28.2442 27.1755 26.744 28.0634V26.6169C27.6158 26.101 28.329 24.7691 28.3617 23.6151C28.3964 22.3861 27.648 21.8309 26.7267 22.3761C26.3703 22.5872 26.016 22.8876 25.6889 23.2675C24.6942 24.4211 23.9969 26.1298 23.9894 27.6448C23.9795 29.6987 25.2686 30.6104 26.8283 29.6873L30.2475 27.6632V22.4293V20.2666V19.5809V19.5794V18.8936V16.731V11.4971L26.8283 13.5211C25.2686 14.4443 23.979 16.883 23.9894 18.9249C23.9969 20.4315 24.6947 21.3139 25.6889 21.2901Z" fill="black"/>
<path d="M24.3502 24.166L22.5016 25.2599V23.072L24.3502 21.9775V24.166Z" fill="black"/>
</g>
</g>
<defs>
<linearGradient id="paint0_linear_2349_12145" x1="4.2855" y1="10.1356" x2="33.5072" y2="9.14634" gradientUnits="userSpaceOnUse">
<stop offset="0.02" stop-color="#00CCC0" stop-opacity="0.2"/>
<stop offset="0.17" stop-color="#00CBBA" stop-opacity="0.22"/>
<stop offset="0.33" stop-color="#00CBAB" stop-opacity="0.28"/>
<stop offset="0.48" stop-color="#00CA92" stop-opacity="0.39"/>
<stop offset="0.64" stop-color="#00C96F" stop-opacity="0.54"/>
<stop offset="0.8" stop-color="#00C842" stop-opacity="0.72"/>
<stop offset="0.96" stop-color="#00C60C" stop-opacity="0.95"/>
<stop offset="0.99" stop-color="#00C601"/>
</linearGradient>
<linearGradient id="paint1_linear_2349_12145" x1="9.87549" y1="17.9506" x2="4.3517" y2="33.0907" gradientUnits="userSpaceOnUse">
<stop stop-color="#00625D" stop-opacity="0"/>
<stop offset="0.28" stop-color="#00863A" stop-opacity="0.38"/>
<stop offset="0.56" stop-color="#00A61A" stop-opacity="0.71"/>
<stop offset="0.76" stop-color="#00BA07" stop-opacity="0.92"/>
<stop offset="0.86" stop-color="#00C200"/>
</linearGradient>
<linearGradient id="paint2_linear_2349_12145" x1="17.9073" y1="11.4295" x2="29.485" y2="36.8875" gradientUnits="userSpaceOnUse">
<stop stop-color="#00C2C4" stop-opacity="0"/>
<stop offset="0.08" stop-color="#00C2B7" stop-opacity="0.06"/>
<stop offset="0.21" stop-color="#00C297" stop-opacity="0.23"/>
<stop offset="0.4" stop-color="#00C262" stop-opacity="0.5"/>
<stop offset="0.62" stop-color="#00C219" stop-opacity="0.87"/>
<stop offset="0.69" stop-color="#00C200"/>
</linearGradient>
</defs>
</svg>
