<svg width="63" height="30" viewBox="0 0 63 30" fill="none" xmlns="http://www.w3.org/2000/svg">
<path d="M53.8912 12.8134V0.635742H58.172C59.2015 0.635742 60.042 0.785601 60.6935 1.08532C61.3581 1.37201 61.8468 1.78249 62.1595 2.31677C62.4723 2.85105 62.6287 3.47003 62.6287 4.17372C62.6287 4.65587 62.5179 5.12499 62.2964 5.58109C62.0879 6.02415 61.7881 6.41508 61.3972 6.7539C61.0063 7.09271 60.5437 7.3403 60.0094 7.49667L63.0001 12.8134H60.8499L58.0156 7.65305H55.885V12.8134H53.8912ZM55.885 6.01112H58.3284C59.1102 6.01112 59.6836 5.84823 60.0485 5.52245C60.4264 5.19667 60.6153 4.76012 60.6153 4.21281C60.6153 3.86097 60.5306 3.54822 60.3612 3.27456C60.2049 2.98788 59.9573 2.76634 59.6184 2.60997C59.2796 2.44056 58.8431 2.35586 58.3088 2.35586H55.885V6.01112Z" fill="white"/>
<path d="M49.961 9.7261H44.742L45.1329 8.27963H49.5701L49.961 9.7261ZM47.459 4.2139L44.3511 12.8145H42.3768L47.0876 0.5H47.8304L52.5412 12.8145H50.5083L47.459 4.2139Z" fill="white"/>
<path d="M39.218 9.7261H33.999L34.3899 8.27963H38.827L39.218 9.7261ZM36.716 4.2139L33.608 12.8145H31.6338L36.3446 0.5H37.0874L41.7981 12.8145H39.7653L36.716 4.2139Z" fill="white"/>
<path d="M21.532 11.5429L27.9824 2.29722H21.7861V0.635742H30.3867V1.90628L24.034 11.1715H29.8394C30.0609 11.1715 30.2173 11.1584 30.3085 11.1324C30.3997 11.1063 30.4844 11.0542 30.5626 10.976H30.719V11.1715V12.8134H21.532V11.5429Z" fill="white"/>
<path d="M17.7241 9.7261H12.5051L12.896 8.27963H17.3331L17.7241 9.7261ZM15.2221 4.2139L12.1141 12.8145H10.1399L14.8507 0.5H15.5935L20.3042 12.8145H18.2714L15.2221 4.2139Z" fill="white"/>
<path d="M0 12.8134V0.635742H3.968C4.77594 0.635742 5.46659 0.707414 6.03997 0.850757C6.61334 0.994101 7.08898 1.2026 7.46688 1.47625C7.84479 1.73688 8.12496 2.05614 8.3074 2.43405C8.48983 2.81195 8.58105 3.22244 8.58105 3.6655C8.58105 4.03037 8.50938 4.39525 8.36604 4.76012C8.22269 5.11196 8.00768 5.42471 7.72099 5.69837C7.43431 5.97202 7.08898 6.18052 6.68501 6.32387C7.03685 6.44115 7.36263 6.60404 7.66235 6.81254C7.96207 7.02104 8.21618 7.26211 8.42468 7.53577C8.64621 7.79639 8.81561 8.08308 8.9329 8.39583C9.05018 8.69555 9.10882 9.0083 9.10882 9.33407C9.10882 9.86835 9.00457 10.3505 8.79607 10.7805C8.6006 11.2106 8.28785 11.5754 7.85782 11.8752C7.44082 12.1749 6.90654 12.4094 6.25498 12.5788C5.61645 12.7352 4.84761 12.8134 3.94846 12.8134H0ZM1.95468 11.191H4.20257C4.78897 11.191 5.29719 11.1259 5.72722 10.9956C6.15725 10.8522 6.48303 10.6372 6.70456 10.3505C6.93912 10.0638 7.0564 9.69895 7.0564 9.25589C7.0564 8.83889 6.94564 8.47402 6.7241 8.16127C6.51561 7.83549 6.17679 7.58138 5.70767 7.39894C5.23855 7.2165 4.61305 7.12529 3.83118 7.12529H1.95468V11.191ZM1.95468 5.56154H3.75299C4.45667 5.56154 5.01702 5.48987 5.43401 5.34653C5.85101 5.20318 6.15073 5.0012 6.33317 4.74057C6.51561 4.47995 6.60682 4.18675 6.60682 3.86097C6.60682 3.61337 6.5547 3.39184 6.45045 3.19638C6.3462 3.00091 6.18983 2.8315 5.98133 2.68816C5.77283 2.54481 5.50569 2.43405 5.17991 2.35586C4.85413 2.26464 4.45667 2.21903 3.98755 2.21903H1.95468V5.56154Z" fill="white"/>
<path d="M25.88 29.2451V20.99H22.934V19.6704H30.4525V20.99H27.3837V29.2451H25.88Z" fill="white"/>
<path d="M14.8993 29.2444V19.6851H18.2596C19.0678 19.6851 19.7276 19.8027 20.239 20.038C20.7607 20.263 21.1443 20.5852 21.3898 21.0046C21.6353 21.4241 21.7581 21.9099 21.7581 22.4623C21.7581 22.8408 21.6711 23.2091 21.4972 23.5671C21.3336 23.9149 21.0983 24.2218 20.7914 24.4877C20.4845 24.7537 20.1214 24.9481 19.702 25.0708L22.0496 29.2444H20.3618L18.1369 25.1936H16.4644V29.2444H14.8993ZM16.4644 23.9047H18.3824C18.9962 23.9047 19.4462 23.7768 19.7327 23.5211C20.0293 23.2653 20.1776 22.9227 20.1776 22.493C20.1776 22.2168 20.1112 21.9713 19.9782 21.7565C19.8554 21.5315 19.6611 21.3576 19.3951 21.2348C19.1291 21.1018 18.7865 21.0353 18.367 21.0353H16.4644V23.9047Z" fill="white"/>
<path d="M11.8264 26.8195H7.72956L8.03644 25.6841H11.5195L11.8264 26.8195ZM9.86238 22.4925L7.42267 29.2439H5.87292L9.57084 19.5771H10.1539L13.8518 29.2439H12.2561L9.86238 22.4925Z" fill="white"/>
<path d="M1.24983 29.4277C0.942947 29.4277 0.682098 29.3203 0.467282 29.1054C0.262694 28.8906 0.1604 28.6349 0.1604 28.3382C0.1604 28.0518 0.262694 27.8012 0.467282 27.5864C0.682098 27.3716 0.942947 27.2642 1.24983 27.2642C1.53625 27.2642 1.78687 27.3716 2.00169 27.5864C2.2165 27.8012 2.32391 28.0518 2.32391 28.3382C2.32391 28.6349 2.2165 28.8906 2.00169 29.1054C1.78687 29.3203 1.53625 29.4277 1.24983 29.4277Z" fill="white"/>
</svg>
