<svg width="100" height="100" viewBox="0 0 100 100" fill="none" xmlns="http://www.w3.org/2000/svg">
<rect width="100" height="100" rx="50" fill="#0D0D0E"/>
<path fill-rule="evenodd" clip-rule="evenodd" d="M62.2459 20.4359L50 10L37.7541 20.4359L21.7157 21.7157L20.4359 37.7541L10 50L20.4359 62.2459L21.7157 78.2843L37.7541 79.5641L50 90L62.2459 79.5641L78.2843 78.2843L79.5641 62.2459L90 50L79.5641 37.7541L78.2843 21.7157L62.2459 20.4359ZM69.9229 30.0771L58.6258 29.1756L50 21.8248L41.3742 29.1756L30.0771 30.0771L29.1756 41.3742L21.8248 50L29.1756 58.6258L30.0771 69.9229L41.3742 70.8244L50 78.1752L58.6258 70.8244L69.9229 69.9229L70.8244 58.6258L78.1752 50L70.8244 41.3742L69.9229 30.0771Z" fill="white"/>
<path fill-rule="evenodd" clip-rule="evenodd" d="M50 57C53.866 57 57 53.866 57 50C57 46.134 53.866 43 50 43C46.134 43 43 46.134 43 50C43 53.866 46.134 57 50 57ZM50 63C57.1797 63 63 57.1797 63 50C63 42.8203 57.1797 37 50 37C42.8203 37 37 42.8203 37 50C37 57.1797 42.8203 63 50 63Z" fill="#1BDDAF"/>
</svg>
